<svg xmlns="http://www.w3.org/2000/svg" xmlns:xlink="http://www.w3.org/1999/xlink" width="500" zoomAndPan="magnify" viewBox="0 0 375 374.999991" height="500" preserveAspectRatio="xMidYMid meet" version="1.0"><defs><g/></defs><g fill="currentColor" fill-opacity="1"><g transform="translate(38.498735, 179.802557)"><g><path d="M 19.53125 -36.5625 C 24.269531 -36.5625 27.898438 -35.378906 30.421875 -33.015625 C 32.953125 -30.648438 34.21875 -27.144531 34.21875 -22.5 L 34.21875 0 L 29.53125 0 L 29.53125 -5.65625 C 28.425781 -3.769531 26.800781 -2.296875 24.65625 -1.234375 C 22.519531 -0.179688 19.984375 0.34375 17.046875 0.34375 C 12.992188 0.34375 9.769531 -0.617188 7.375 -2.546875 C 4.988281 -4.484375 3.796875 -7.039062 3.796875 -10.21875 C 3.796875 -13.289062 4.910156 -15.769531 7.140625 -17.65625 C 9.367188 -19.550781 12.921875 -20.5 17.796875 -20.5 L 29.328125 -20.5 L 29.328125 -22.703125 C 29.328125 -25.828125 28.453125 -28.207031 26.703125 -29.84375 C 24.953125 -31.476562 22.398438 -32.296875 19.046875 -32.296875 C 16.742188 -32.296875 14.535156 -31.914062 12.421875 -31.15625 C 10.304688 -30.394531 8.488281 -29.347656 6.96875 -28.015625 L 4.765625 -31.671875 C 6.597656 -33.234375 8.800781 -34.4375 11.375 -35.28125 C 13.957031 -36.132812 16.675781 -36.5625 19.53125 -36.5625 Z M 17.796875 -3.515625 C 20.554688 -3.515625 22.925781 -4.144531 24.90625 -5.40625 C 26.882812 -6.675781 28.359375 -8.507812 29.328125 -10.90625 L 29.328125 -16.84375 L 17.9375 -16.84375 C 11.726562 -16.84375 8.625 -14.675781 8.625 -10.34375 C 8.625 -8.226562 9.425781 -6.5625 11.03125 -5.34375 C 12.644531 -4.125 14.898438 -3.515625 17.796875 -3.515625 Z M 17.796875 -3.515625 "/></g></g><g transform="translate(79.208732, 179.802557)"><g><path d="M 25.9375 -2.203125 C 25.019531 -1.378906 23.882812 -0.75 22.53125 -0.3125 C 21.175781 0.125 19.757812 0.34375 18.28125 0.34375 C 14.875 0.34375 12.25 -0.570312 10.40625 -2.40625 C 8.570312 -4.25 7.65625 -6.851562 7.65625 -10.21875 L 7.65625 -32.15625 L 1.171875 -32.15625 L 1.171875 -36.296875 L 7.65625 -36.296875 L 7.65625 -44.234375 L 12.5625 -44.234375 L 12.5625 -36.296875 L 23.59375 -36.296875 L 23.59375 -32.15625 L 12.5625 -32.15625 L 12.5625 -10.484375 C 12.5625 -8.328125 13.097656 -6.679688 14.171875 -5.546875 C 15.253906 -4.421875 16.8125 -3.859375 18.84375 -3.859375 C 19.851562 -3.859375 20.828125 -4.019531 21.765625 -4.34375 C 22.710938 -4.664062 23.53125 -5.128906 24.21875 -5.734375 Z M 25.9375 -2.203125 "/></g></g><g transform="translate(107.222731, 179.802557)"><g><path d="M 52.09375 -36.5625 C 56.644531 -36.5625 60.21875 -35.25 62.8125 -32.625 C 65.414062 -30.007812 66.71875 -26.148438 66.71875 -21.046875 L 66.71875 0 L 61.828125 0 L 61.828125 -20.5625 C 61.828125 -24.332031 60.914062 -27.207031 59.09375 -29.1875 C 57.28125 -31.164062 54.71875 -32.15625 51.40625 -32.15625 C 47.632812 -32.15625 44.664062 -30.992188 42.5 -28.671875 C 40.34375 -26.347656 39.265625 -23.140625 39.265625 -19.046875 L 39.265625 0 L 34.359375 0 L 34.359375 -20.5625 C 34.359375 -24.332031 33.445312 -27.207031 31.625 -29.1875 C 29.8125 -31.164062 27.226562 -32.15625 23.875 -32.15625 C 20.144531 -32.15625 17.1875 -30.992188 15 -28.671875 C 12.820312 -26.347656 11.734375 -23.140625 11.734375 -19.046875 L 11.734375 0 L 6.828125 0 L 6.828125 -36.296875 L 11.515625 -36.296875 L 11.515625 -29.671875 C 12.804688 -31.878906 14.601562 -33.578125 16.90625 -34.765625 C 19.207031 -35.960938 21.851562 -36.5625 24.84375 -36.5625 C 27.875 -36.5625 30.503906 -35.914062 32.734375 -34.625 C 34.972656 -33.34375 36.644531 -31.4375 37.75 -28.90625 C 39.082031 -31.300781 41 -33.175781 43.5 -34.53125 C 46.007812 -35.882812 48.875 -36.5625 52.09375 -36.5625 Z M 52.09375 -36.5625 "/></g></g></g><g fill="currentColor" fill-opacity="1"><g transform="translate(180.431741, 179.802557)"><g><path d="M 21.671875 0.34375 C 18.171875 0.34375 15.015625 -0.445312 12.203125 -2.03125 C 9.398438 -3.625 7.191406 -5.820312 5.578125 -8.625 C 3.972656 -11.425781 3.171875 -14.597656 3.171875 -18.140625 C 3.171875 -21.679688 3.972656 -24.851562 5.578125 -27.65625 C 7.191406 -30.46875 9.398438 -32.65625 12.203125 -34.21875 C 15.015625 -35.78125 18.171875 -36.5625 21.671875 -36.5625 C 25.160156 -36.5625 28.304688 -35.78125 31.109375 -34.21875 C 33.921875 -32.65625 36.117188 -30.46875 37.703125 -27.65625 C 39.296875 -24.851562 40.09375 -21.679688 40.09375 -18.140625 C 40.09375 -14.597656 39.296875 -11.425781 37.703125 -8.625 C 36.117188 -5.820312 33.921875 -3.625 31.109375 -2.03125 C 28.304688 -0.445312 25.160156 0.34375 21.671875 0.34375 Z M 21.671875 -4 C 24.242188 -4 26.550781 -4.582031 28.59375 -5.75 C 30.644531 -6.925781 32.242188 -8.59375 33.390625 -10.75 C 34.546875 -12.914062 35.125 -15.378906 35.125 -18.140625 C 35.125 -20.898438 34.546875 -23.359375 33.390625 -25.515625 C 32.242188 -27.679688 30.644531 -29.351562 28.59375 -30.53125 C 26.550781 -31.707031 24.242188 -32.296875 21.671875 -32.296875 C 19.085938 -32.296875 16.769531 -31.707031 14.71875 -30.53125 C 12.675781 -29.351562 11.066406 -27.679688 9.890625 -25.515625 C 8.722656 -23.359375 8.140625 -20.898438 8.140625 -18.140625 C 8.140625 -15.378906 8.722656 -12.914062 9.890625 -10.75 C 11.066406 -8.59375 12.675781 -6.925781 14.71875 -5.75 C 16.769531 -4.582031 19.085938 -4 21.671875 -4 Z M 21.671875 -4 "/></g></g></g><g fill="currentColor" fill-opacity="1"><g transform="translate(223.694742, 179.802557)"><g><path d="M 16.5625 0.34375 C 13.613281 0.34375 10.796875 -0.078125 8.109375 -0.921875 C 5.421875 -1.773438 3.316406 -2.847656 1.796875 -4.140625 L 4 -8 C 5.519531 -6.800781 7.425781 -5.820312 9.71875 -5.0625 C 12.019531 -4.3125 14.414062 -3.9375 16.90625 -3.9375 C 20.21875 -3.9375 22.664062 -4.453125 24.25 -5.484375 C 25.84375 -6.515625 26.640625 -7.972656 26.640625 -9.859375 C 26.640625 -11.203125 26.203125 -12.25 25.328125 -13 C 24.453125 -13.757812 23.347656 -14.332031 22.015625 -14.71875 C 20.679688 -15.113281 18.910156 -15.5 16.703125 -15.875 C 13.753906 -16.425781 11.382812 -16.988281 9.59375 -17.5625 C 7.800781 -18.132812 6.269531 -19.109375 5 -20.484375 C 3.738281 -21.867188 3.109375 -23.78125 3.109375 -26.21875 C 3.109375 -29.257812 4.367188 -31.742188 6.890625 -33.671875 C 9.421875 -35.597656 12.941406 -36.5625 17.453125 -36.5625 C 19.796875 -36.5625 22.140625 -36.25 24.484375 -35.625 C 26.835938 -35.007812 28.773438 -34.195312 30.296875 -33.1875 L 28.15625 -29.25 C 25.164062 -31.320312 21.597656 -32.359375 17.453125 -32.359375 C 14.328125 -32.359375 11.96875 -31.804688 10.375 -30.703125 C 8.789062 -29.597656 8 -28.148438 8 -26.359375 C 8 -24.972656 8.445312 -23.863281 9.34375 -23.03125 C 10.238281 -22.207031 11.351562 -21.597656 12.6875 -21.203125 C 14.03125 -20.816406 15.875 -20.421875 18.21875 -20.015625 C 21.113281 -19.460938 23.4375 -18.910156 25.1875 -18.359375 C 26.9375 -17.804688 28.429688 -16.863281 29.671875 -15.53125 C 30.910156 -14.195312 31.53125 -12.351562 31.53125 -10 C 31.53125 -6.832031 30.207031 -4.316406 27.5625 -2.453125 C 24.914062 -0.585938 21.25 0.34375 16.5625 0.34375 Z M 16.5625 0.34375 "/></g></g></g><g fill="currentColor" fill-opacity="1"><g transform="translate(120.147653, 229.949985)"><g><path d="M 7.3125 0.34375 C 6.300781 0.34375 5.4375 -0.0195312 4.71875 -0.75 C 4.007812 -1.488281 3.65625 -2.390625 3.65625 -3.453125 C 3.65625 -4.503906 4.007812 -5.382812 4.71875 -6.09375 C 5.4375 -6.8125 6.300781 -7.171875 7.3125 -7.171875 C 8.320312 -7.171875 9.195312 -6.8125 9.9375 -6.09375 C 10.675781 -5.382812 11.046875 -4.503906 11.046875 -3.453125 C 11.046875 -2.390625 10.675781 -1.488281 9.9375 -0.75 C 9.195312 -0.0195312 8.320312 0.34375 7.3125 0.34375 Z M 7.3125 0.34375 "/></g></g></g><g fill="currentColor" fill-opacity="1"><g transform="translate(134.77565, 229.949985)"><g><path d="M 20.28125 -18.21875 L 11.734375 -10.34375 L 11.734375 0 L 6.828125 0 L 6.828125 -51.203125 L 11.734375 -51.203125 L 11.734375 -16.484375 L 33.390625 -36.296875 L 39.46875 -36.296875 L 23.9375 -21.453125 L 40.921875 0 L 34.90625 0 Z M 20.28125 -18.21875 "/></g></g></g><g fill="currentColor" fill-opacity="1"><g transform="translate(176.244653, 229.949985)"><g><path d="M 39.53125 -36.296875 L 39.53125 0 L 34.84375 0 L 34.84375 -6.625 C 33.550781 -4.414062 31.78125 -2.703125 29.53125 -1.484375 C 27.28125 -0.265625 24.703125 0.34375 21.796875 0.34375 C 17.066406 0.34375 13.332031 -0.976562 10.59375 -3.625 C 7.851562 -6.269531 6.484375 -10.144531 6.484375 -15.25 L 6.484375 -36.296875 L 11.390625 -36.296875 L 11.390625 -15.734375 C 11.390625 -11.910156 12.332031 -9.007812 14.21875 -7.03125 C 16.101562 -5.0625 18.789062 -4.078125 22.28125 -4.078125 C 26.101562 -4.078125 29.117188 -5.238281 31.328125 -7.5625 C 33.535156 -9.882812 34.640625 -13.113281 34.640625 -17.25 L 34.640625 -36.296875 Z M 39.53125 -36.296875 "/></g></g><g transform="translate(222.68165, 229.949985)"><g><path d="M 25.328125 -36.5625 C 29.878906 -36.5625 33.5 -35.238281 36.1875 -32.59375 C 38.882812 -29.957031 40.234375 -26.109375 40.234375 -21.046875 L 40.234375 0 L 35.328125 0 L 35.328125 -20.5625 C 35.328125 -24.332031 34.382812 -27.207031 32.5 -29.1875 C 30.613281 -31.164062 27.921875 -32.15625 24.421875 -32.15625 C 20.515625 -32.15625 17.421875 -30.992188 15.140625 -28.671875 C 12.867188 -26.347656 11.734375 -23.140625 11.734375 -19.046875 L 11.734375 0 L 6.828125 0 L 6.828125 -36.296875 L 11.515625 -36.296875 L 11.515625 -29.59375 C 12.859375 -31.800781 14.710938 -33.515625 17.078125 -34.734375 C 19.441406 -35.953125 22.191406 -36.5625 25.328125 -36.5625 Z M 25.328125 -36.5625 "/></g></g></g><g fill="currentColor" fill-opacity="1"><g transform="translate(269.394656, 229.949985)"><g><path d="M 16.5625 0.34375 C 13.613281 0.34375 10.796875 -0.078125 8.109375 -0.921875 C 5.421875 -1.773438 3.316406 -2.847656 1.796875 -4.140625 L 4 -8 C 5.519531 -6.800781 7.425781 -5.820312 9.71875 -5.0625 C 12.019531 -4.3125 14.414062 -3.9375 16.90625 -3.9375 C 20.21875 -3.9375 22.664062 -4.453125 24.25 -5.484375 C 25.84375 -6.515625 26.640625 -7.972656 26.640625 -9.859375 C 26.640625 -11.203125 26.203125 -12.25 25.328125 -13 C 24.453125 -13.757812 23.347656 -14.332031 22.015625 -14.71875 C 20.679688 -15.113281 18.910156 -15.5 16.703125 -15.875 C 13.753906 -16.425781 11.382812 -16.988281 9.59375 -17.5625 C 7.800781 -18.132812 6.269531 -19.109375 5 -20.484375 C 3.738281 -21.867188 3.109375 -23.78125 3.109375 -26.21875 C 3.109375 -29.257812 4.367188 -31.742188 6.890625 -33.671875 C 9.421875 -35.597656 12.941406 -36.5625 17.453125 -36.5625 C 19.796875 -36.5625 22.140625 -36.25 24.484375 -35.625 C 26.835938 -35.007812 28.773438 -34.195312 30.296875 -33.1875 L 28.15625 -29.25 C 25.164062 -31.320312 21.597656 -32.359375 17.453125 -32.359375 C 14.328125 -32.359375 11.96875 -31.804688 10.375 -30.703125 C 8.789062 -29.597656 8 -28.148438 8 -26.359375 C 8 -24.972656 8.445312 -23.863281 9.34375 -23.03125 C 10.238281 -22.207031 11.351562 -21.597656 12.6875 -21.203125 C 14.03125 -20.816406 15.875 -20.421875 18.21875 -20.015625 C 21.113281 -19.460938 23.4375 -18.910156 25.1875 -18.359375 C 26.9375 -17.804688 28.429688 -16.863281 29.671875 -15.53125 C 30.910156 -14.195312 31.53125 -12.351562 31.53125 -10 C 31.53125 -6.832031 30.207031 -4.316406 27.5625 -2.453125 C 24.914062 -0.585938 21.25 0.34375 16.5625 0.34375 Z M 16.5625 0.34375 "/></g></g></g><g fill="currentColor" fill-opacity="1"><g transform="translate(303.135659, 229.949985)"><g><path d="M 25.9375 -2.203125 C 25.019531 -1.378906 23.882812 -0.75 22.53125 -0.3125 C 21.175781 0.125 19.757812 0.34375 18.28125 0.34375 C 14.875 0.34375 12.25 -0.570312 10.40625 -2.40625 C 8.570312 -4.25 7.65625 -6.851562 7.65625 -10.21875 L 7.65625 -32.15625 L 1.171875 -32.15625 L 1.171875 -36.296875 L 7.65625 -36.296875 L 7.65625 -44.234375 L 12.5625 -44.234375 L 12.5625 -36.296875 L 23.59375 -36.296875 L 23.59375 -32.15625 L 12.5625 -32.15625 L 12.5625 -10.484375 C 12.5625 -8.328125 13.097656 -6.679688 14.171875 -5.546875 C 15.253906 -4.421875 16.8125 -3.859375 18.84375 -3.859375 C 19.851562 -3.859375 20.828125 -4.019531 21.765625 -4.34375 C 22.710938 -4.664062 23.53125 -5.128906 24.21875 -5.734375 Z M 25.9375 -2.203125 "/></g></g></g></svg>