<svg width="306" height="102" viewBox="0 0 306 102" fill="currentColor" xmlns="http://www.w3.org/2000/svg">
<path d="M16.7439 8.40738C21.7855 8.40738 25.6466 9.66673 28.3316 12.1813C31.0248 14.6999 32.3714 18.4281 32.3714 23.3699V47.3099H27.3839V41.2916C26.2077 43.2991 24.4787 44.866 22.1969 45.9965C19.9235 47.1187 17.2261 47.6756 14.1006 47.6756C9.78638 47.6756 6.35747 46.6532 3.80969 44.6C1.27022 42.5385 0.00256348 39.8203 0.00256348 36.4371C0.00256348 33.1703 1.18709 30.5311 3.56031 28.5236C5.92938 26.5079 9.71156 25.4979 14.8986 25.4979H27.1678V23.1538C27.1678 19.8288 26.2368 17.2976 24.3748 15.5561C22.5128 13.8188 19.7946 12.946 16.2286 12.946C13.7764 12.946 11.4281 13.3533 9.17956 14.1596C6.92688 14.9701 4.99422 16.084 3.37744 17.5013L1.03331 13.611C2.98259 11.9485 5.32672 10.6684 8.06569 9.77063C10.813 8.86457 13.7057 8.40738 16.7439 8.40738ZM14.8986 43.5693C17.8329 43.5693 20.3557 42.9001 22.4629 41.5576C24.566 40.2069 26.1371 38.2576 27.1678 35.7056V29.3881H15.0482C8.43975 29.3881 5.13969 31.6949 5.13969 36.3041C5.13969 38.5568 5.99172 40.3274 7.69994 41.6241C9.41647 42.9209 11.8146 43.5693 14.8986 43.5693Z" fill="currentColor"/>
<path d="M66.8756 44.9658C65.8989 45.8427 64.6894 46.5119 63.2514 46.9774C61.8092 47.4429 60.3004 47.6756 58.7294 47.6756C55.1051 47.6756 52.3121 46.7031 50.3504 44.7496C48.3969 42.7879 47.4244 40.0198 47.4244 36.4371V13.0956H40.525V8.69001H47.4244V0.244507H52.6446V8.69001H64.3819V13.0956H52.6446V36.1545C52.6446 38.4488 53.214 40.2027 54.357 41.408C55.5083 42.605 57.1666 43.2035 59.3279 43.2035C60.4002 43.2035 61.4393 43.0331 62.4368 42.6881C63.4426 42.3473 64.3154 41.8527 65.0469 41.2085L66.8756 44.9658Z" fill="currentColor"/>
<path d="M124.513 8.40738C129.355 8.40738 133.158 9.80388 135.918 12.5969C138.686 15.3816 140.074 19.4879 140.074 24.916V47.3099H134.87V25.4314C134.87 21.4206 133.898 18.3616 131.961 16.2544C130.032 14.1513 127.306 13.0956 123.781 13.0956C119.766 13.0956 116.608 14.3342 114.305 16.803C112.011 19.276 110.864 22.6883 110.864 27.044V47.3099H105.643V25.4314C105.643 21.4206 104.671 18.3616 102.734 16.2544C100.806 14.1513 98.0541 13.0956 94.488 13.0956C90.5188 13.0956 87.3725 14.3342 85.045 16.803C82.7258 19.276 81.5704 22.6883 81.5704 27.044V47.3099H76.3502V8.69001H81.3377V15.739C82.7092 13.3907 84.6211 11.5828 87.0733 10.3193C89.5213 9.04744 92.3351 8.40738 95.5188 8.40738C98.744 8.40738 101.541 9.09732 103.914 10.4689C106.296 11.8321 108.075 13.8604 109.251 16.5536C110.668 14.0059 112.709 12.0109 115.369 10.5686C118.037 9.13057 121.088 8.40738 124.513 8.40738Z" fill="currentColor"/>
<path d="M170.038 47.6756C166.314 47.6756 162.956 46.8361 159.964 45.1486C156.979 43.4529 154.631 41.1171 152.915 38.1329C151.206 35.1529 150.354 31.778 150.354 28.0083C150.354 24.2427 151.206 20.8678 152.915 17.8836C154.631 14.8911 156.979 12.5636 159.964 10.9011C162.956 9.23864 166.314 8.40739 170.038 8.40739C173.75 8.40739 177.096 9.23864 180.08 10.9011C183.072 12.5636 185.408 14.8911 187.096 17.8836C188.791 20.8678 189.639 24.2427 189.639 28.0083C189.639 31.778 188.791 35.1529 187.096 38.1329C185.408 41.1171 183.072 43.4529 180.08 45.1486C177.096 46.8361 173.75 47.6756 170.038 47.6756ZM170.038 43.0539C172.773 43.0539 175.229 42.4346 177.403 41.1919C179.585 39.9409 181.285 38.1661 182.507 35.8719C183.737 33.5693 184.352 30.9467 184.352 28.0083C184.352 25.074 183.737 22.4555 182.507 20.1613C181.285 17.8587 179.585 16.0798 177.403 14.8246C175.229 13.5736 172.773 12.946 170.038 12.946C167.287 12.946 164.822 13.5736 162.64 14.8246C160.466 16.0798 158.754 17.8587 157.503 20.1613C156.26 22.4555 155.641 25.074 155.641 28.0083C155.641 30.9467 156.26 33.5693 157.503 35.8719C158.754 38.1661 160.466 39.9409 162.64 41.1919C164.822 42.4346 167.287 43.0539 170.038 43.0539Z" fill="currentColor"/>
<path d="M210.634 47.6756C207.496 47.6756 204.499 47.2268 201.64 46.329C198.78 45.423 196.54 44.28 194.923 42.9043L197.267 38.7979C198.884 40.0739 200.912 41.1171 203.352 41.9234C205.8 42.7214 208.348 43.1204 211 43.1204C214.524 43.1204 217.126 42.5718 218.813 41.4745C220.509 40.3773 221.357 38.827 221.357 36.8195C221.357 35.3898 220.891 34.2759 219.96 33.4779C219.029 32.6716 217.853 32.0606 216.436 31.6491C215.014 31.2294 213.132 30.8179 210.783 30.4189C207.645 29.8329 205.123 29.2344 203.219 28.6234C201.311 28.0166 199.682 26.9775 198.331 25.5145C196.989 24.0432 196.32 22.0066 196.32 19.4131C196.32 16.1796 197.658 13.5362 200.343 11.483C203.036 9.43398 206.781 8.40739 211.581 8.40739C214.075 8.40739 216.569 8.73989 219.063 9.40489C221.565 10.0616 223.626 10.9261 225.247 11.9984L222.97 16.1879C219.786 13.9851 215.991 12.8795 211.581 12.8795C208.256 12.8795 205.746 13.4697 204.05 14.6418C202.363 15.818 201.523 17.36 201.523 19.2635C201.523 20.739 201.997 21.9194 202.953 22.8046C203.905 23.6816 205.089 24.33 206.511 24.7498C207.941 25.1612 209.902 25.581 212.396 26.0133C215.476 26.6035 217.949 27.1895 219.811 27.7755C221.673 28.3657 223.26 29.3674 224.582 30.7846C225.9 32.2061 226.561 34.1678 226.561 36.6699C226.561 40.0406 225.152 42.7172 222.338 44.6998C219.52 46.6865 215.621 47.6756 210.634 47.6756Z" fill="currentColor"/>
<path d="M90.6176 101.033C89.5412 101.033 88.6226 100.646 87.8579 99.8688C87.1015 99.0832 86.7274 98.1231 86.7274 96.9926C86.7274 95.8746 87.1015 94.9394 87.8579 94.183C88.6226 93.4182 89.5412 93.0359 90.6176 93.0359C91.69 93.0359 92.621 93.4182 93.4106 94.183C94.1962 94.9394 94.591 95.8746 94.591 96.9926C94.591 98.1231 94.1962 99.0832 93.4106 99.8688C92.621 100.646 91.69 101.033 90.6176 101.033Z" fill="currentColor"/>
<path d="M119.981 81.282L110.887 89.661V100.667H105.666V46.1866H110.887V83.1274L133.929 62.0469H140.396L123.871 77.8406L141.942 100.667H135.542L119.981 81.282Z" fill="currentColor"/>
<path d="M184.586 62.0469V100.667H179.598V93.6177C178.222 95.9702 176.34 97.7906 173.946 99.0874C171.552 100.384 168.808 101.032 165.716 101.032C160.683 101.032 156.71 99.6277 153.796 96.8097C150.878 93.996 149.424 89.873 149.424 84.4407V62.0469H154.644V83.9254C154.644 87.9943 155.646 91.0824 157.653 93.1855C159.656 95.2802 162.516 96.3276 166.232 96.3276C170.296 96.3276 173.505 95.0932 175.857 92.6202C178.206 90.1514 179.382 86.7142 179.382 82.3127V62.0469H184.586Z" fill="currentColor"/>
<path d="M218.882 61.7643C223.724 61.7643 227.577 63.1732 230.437 65.987C233.305 68.7925 234.743 72.8864 234.743 78.2729V100.667H229.522V78.7883C229.522 74.7775 228.517 71.7185 226.513 69.6113C224.506 67.5082 221.642 66.4525 217.918 66.4525C213.762 66.4525 210.47 67.6911 208.043 70.1599C205.624 72.6328 204.419 76.0451 204.419 80.4009V100.667H199.198V62.0469H204.186V69.179C205.616 66.8307 207.586 65.0061 210.104 63.7094C212.619 62.4126 215.545 61.7643 218.882 61.7643Z" fill="currentColor"/>
<path d="M259.258 101.033C256.12 101.033 253.124 100.584 250.264 99.6859C247.405 98.7798 245.165 97.6369 243.548 96.2611L245.892 92.1548C247.509 93.4307 249.537 94.4739 251.977 95.2803C254.425 96.0783 256.973 96.4773 259.624 96.4773C263.149 96.4773 265.751 95.9286 267.438 94.8314C269.134 93.7341 269.982 92.1839 269.982 90.1764C269.982 88.7466 269.516 87.6328 268.585 86.8348C267.654 86.0284 266.478 85.4175 265.061 85.006C263.639 84.5862 261.756 84.1748 259.408 83.7758C256.27 83.1897 253.747 82.5912 251.844 81.9803C249.936 81.3734 248.307 80.3344 246.956 78.8714C245.613 77.4001 244.944 75.3635 244.944 72.77C244.944 69.5364 246.283 66.8931 248.968 64.8399C251.661 62.7909 255.406 61.7643 260.206 61.7643C262.7 61.7643 265.194 62.0968 267.687 62.7618C270.189 63.4184 272.251 64.2829 273.872 65.3553L271.594 69.5448C268.411 67.3419 264.616 66.2364 260.206 66.2364C256.881 66.2364 254.371 66.8266 252.675 67.9986C250.988 69.1748 250.148 70.7168 250.148 72.6204C250.148 74.0958 250.622 75.2762 251.578 76.1615C252.529 77.0385 253.714 77.6868 255.135 78.1066C256.565 78.5181 258.527 78.9379 261.021 79.3701C264.1 79.9603 266.573 80.5463 268.435 81.1324C270.297 81.7226 271.885 82.7242 273.207 84.1415C274.524 85.5629 275.185 87.5247 275.185 90.0268C275.185 93.3975 273.776 96.0741 270.962 98.0566C268.145 100.043 264.246 101.033 259.258 101.033Z" fill="currentColor"/>
<path d="M305.134 98.3226C304.157 99.1996 302.948 99.8687 301.51 100.334C300.067 100.8 298.559 101.032 296.988 101.032C293.363 101.032 290.57 100.06 288.609 98.1065C286.655 96.1447 285.683 93.3767 285.683 89.794V66.4525H278.783V62.0469H285.683V53.6014H290.903V62.0469H302.64V66.4525H290.903V89.5114C290.903 91.8056 291.472 93.5596 292.615 94.7649C293.767 95.9619 295.425 96.5604 297.586 96.5604C298.658 96.5604 299.697 96.39 300.695 96.045C301.701 95.7042 302.574 95.2096 303.305 94.5654L305.134 98.3226Z" fill="currentColor"/>
</svg>
